<svg xmlns="http://www.w3.org/2000/svg" viewBox="0 0 64 64" role="img" aria-labelledby="title">
  <title id="title">Urban Heat Democratization</title>
  <desc>A shared urban heat source connects equally to three neighborhood cells.</desc>
  <defs>
    <radialGradient id="heat" cx=".5" cy=".35" r=".58"><stop stop-color="#fff8cf"/><stop offset=".48" stop-color="#f5c45b"/><stop offset="1" stop-color="#d77724"/></radialGradient>
    <linearGradient id="district" x1="11" y1="37" x2="53" y2="56" gradientUnits="userSpaceOnUse"><stop stop-color="#91ead5"/><stop offset="1" stop-color="#55bcec"/></linearGradient>
  </defs>
  <rect width="64" height="64" rx="17" fill="#062b43"/>
  <circle cx="32" cy="18.5" r="12.5" fill="url(#heat)"/>
  <path d="M18 31 12 42M32 31v11M46 31l6 11" fill="none" stroke="#f9d982" stroke-linecap="round" stroke-width="3.3"/>
  <path d="M11 42h42v12H11Z" fill="url(#district)"/>
  <path d="M25 42v12M39 42v12M11 48h42" fill="none" stroke="#062b43" stroke-width="2.4"/>
  <circle cx="18" cy="45" r="3.8" fill="#eafff7" stroke="#062b43" stroke-width="2"/>
  <circle cx="32" cy="45" r="3.8" fill="#eafff7" stroke="#062b43" stroke-width="2"/>
  <circle cx="46" cy="45" r="3.8" fill="#eafff7" stroke="#062b43" stroke-width="2"/>
  <path d="M14 55c5.6-3.1 10.9-3.1 16 0 5.1-3.1 10.4-3.1 16 0" fill="none" stroke="#d9fff3" stroke-linecap="round" stroke-width="1.8"/>
</svg>
